<?xml version="1.0" encoding="UTF-8" standalone="no"?>
<!DOCTYPE svg PUBLIC "-//W3C//DTD SVG 1.1//EN" 
  "http://www.w3.org/Graphics/SVG/1.1/DTD/svg11.dtd">
<svg width="16" height="16"
	 xmlns="http://www.w3.org/2000/svg" version="1.1">
 <path d="  M 3,10  L 3,9  L 2,9  L 2,10  Z  " style="fill:rgb(111, 79, 171); fill-opacity:1.000; stroke:none;" />
 <path d="  M 3,9  L 4,9  L 4,8  L 3,8  Z  " style="fill:rgb(111, 79, 171); fill-opacity:1.000; stroke:none;" />
 <path d="  M 3,10  L 3,11  L 4,11  L 4,10  Z  " style="fill:rgb(111, 79, 171); fill-opacity:1.000; stroke:none;" />
 <path d="  M 5,7  L 4,7  L 4,8  L 5,8  Z  " style="fill:rgb(111, 79, 171); fill-opacity:1.000; stroke:none;" />
 <path d="  M 4,13  L 5,13  L 5,12  L 4,12  Z  " style="fill:rgb(111, 79, 171); fill-opacity:1.000; stroke:none;" />
 <path d="  M 6,15  L 6,14  L 4,14  L 4,15  Z  " style="fill:rgb(111, 79, 171); fill-opacity:1.000; stroke:none;" />
 <path d="  M 6,7  L 6,6  L 5,6  L 5,7  Z  " style="fill:rgb(111, 79, 171); fill-opacity:1.000; stroke:none;" />
 <path d="  M 6,12  L 6,11  L 5,11  L 5,12  Z  " style="fill:rgb(111, 79, 171); fill-opacity:1.000; stroke:none;" />
 <path d="  M 7,6  L 7,5  L 6,5  L 6,6  Z  " style="fill:rgb(111, 79, 171); fill-opacity:1.000; stroke:none;" />
 <path d="  M 6,13  L 6,14  L 7,14  L 7,13  Z  " style="fill:rgb(111, 79, 171); fill-opacity:1.000; stroke:none;" />
 <path d="  M 7,5  L 8,5  L 8,4  L 7,4  Z  " style="fill:rgb(111, 79, 171); fill-opacity:1.000; stroke:none;" />
 <path d="  M 8,3  L 8,4  L 9,4  L 9,3  Z  " style="fill:rgb(111, 79, 171); fill-opacity:1.000; stroke:none;" />
 <path d="  M 9,8  L 8,8  L 8,11  L 9,11  Z  " style="fill:rgb(111, 79, 171); fill-opacity:1.000; stroke:none;" />
 <path d="  M 14,3  L 14,2  L 9,2  L 9,3  Z  " style="fill:rgb(111, 79, 171); fill-opacity:1.000; stroke:none;" />
 <path d="  M 10,9  L 11,9  L 11,6  L 10,6  Z  " style="fill:rgb(111, 79, 171); fill-opacity:1.000; stroke:none;" />
 <path d="  M 3,11  L 3,10  L 2,10  L 2,13  L 3,13  L 3,14  L 5,14  L 5,13  L 4,13  L 4,12  L 5,12  L 5,11  Z  " style="fill:rgb(84, 57, 138); fill-opacity:1.000; stroke:none;" />
 <path d="  M 5,12  L 5,13  L 6,13  L 6,12  Z  " style="fill:rgb(84, 57, 138); fill-opacity:1.000; stroke:none;" />
 <path d="  M 7,13  L 8,13  L 8,12  L 7,12  Z  " style="fill:rgb(84, 57, 138); fill-opacity:1.000; stroke:none;" />
 <path d="  M 8,12  L 9,12  L 9,11  L 8,11  Z  " style="fill:rgb(84, 57, 138); fill-opacity:1.000; stroke:none;" />
 <path d="  M 9,11  L 10,11  L 10,10  L 9,10  Z  " style="fill:rgb(84, 57, 138); fill-opacity:1.000; stroke:none;" />
 <path d="  M 10,9  L 10,10  L 11,10  L 11,9  Z  " style="fill:rgb(84, 57, 138); fill-opacity:1.000; stroke:none;" />
 <path d="  M 12,9  L 12,8  L 11,8  L 11,9  Z  " style="fill:rgb(84, 57, 138); fill-opacity:1.000; stroke:none;" />
 <path d="  M 13,8  L 13,7  L 12,7  L 12,8  Z  " style="fill:rgb(84, 57, 138); fill-opacity:1.000; stroke:none;" />
 <path d="  M 14,3  L 13,3  L 13,7  L 14,7  Z  " style="fill:rgb(84, 57, 138); fill-opacity:1.000; stroke:none;" />
 <path d="  M 3,9  L 3,10  L 4,10  L 4,11  L 5,11  L 5,10  L 6,10  L 6,9  Z  " style="fill:rgb(141, 106, 204); fill-opacity:1.000; stroke:none;" />
 <path d="  M 6,14  L 6,13  L 5,13  L 5,14  Z  " style="fill:rgb(141, 106, 204); fill-opacity:1.000; stroke:none;" />
 <path d="  M 7,10  L 6,10  L 6,13  L 7,13  Z  " style="fill:rgb(141, 106, 204); fill-opacity:1.000; stroke:none;" />
 <path d="  M 9,10  L 10,10  L 10,7  L 9,7  Z  " style="fill:rgb(141, 106, 204); fill-opacity:1.000; stroke:none;" />
 <path d="  M 11,8  L 12,8  L 12,7  L 13,7  L 13,5  L 12,5  L 12,6  L 11,6  Z  " style="fill:rgb(141, 106, 204); fill-opacity:1.000; stroke:none;" />
 <path d="  M 5,8  L 4,8  L 4,9  L 6,9  L 6,7  L 5,7  Z  " style="fill:rgb(179, 142, 243); fill-opacity:1.000; stroke:none;" />
 <path d="  M 5,10  L 5,11  L 6,11  L 6,10  Z  " style="fill:rgb(179, 142, 243); fill-opacity:1.000; stroke:none;" />
 <path d="  M 7,12  L 8,12  L 8,9  L 7,9  Z  " style="fill:rgb(179, 142, 243); fill-opacity:1.000; stroke:none;" />
 <path d="  M 9,5  L 9,4  L 8,4  L 8,7  L 9,7  L 9,6  L 10,6  L 10,5  Z  " style="fill:rgb(179, 142, 243); fill-opacity:1.000; stroke:none;" />
 <path d="  M 6,6  L 6,9  L 7,9  L 7,6  Z  " style="fill:rgb(207, 160, 243); fill-opacity:1.000; stroke:none;" />
 <path d="  M 8,7  L 8,8  L 9,8  L 9,7  Z  " style="fill:rgb(207, 160, 243); fill-opacity:1.000; stroke:none;" />
 <path d="  M 10,7  L 10,6  L 9,6  L 9,7  Z  " style="fill:rgb(207, 160, 243); fill-opacity:1.000; stroke:none;" />
 <path d="  M 12,5  L 11,5  L 11,6  L 12,6  Z  " style="fill:rgb(207, 160, 243); fill-opacity:1.000; stroke:none;" />
 <path d="  M 13,4  L 12,4  L 12,5  L 13,5  Z  " style="fill:rgb(207, 160, 243); fill-opacity:1.000; stroke:none;" />
 <path d="  M 7,9  L 6,9  L 6,10  L 7,10  Z  " style="fill:rgb(254, 203, 230); fill-opacity:1.000; stroke:none;" />
 <path d="  M 8,5  L 7,5  L 7,8  L 8,8  Z  " style="fill:rgb(254, 203, 230); fill-opacity:1.000; stroke:none;" />
 <path d="  M 9,3  L 9,5  L 11,5  L 11,4  L 13,4  L 13,3  Z  " style="fill:rgb(254, 203, 230); fill-opacity:1.000; stroke:none;" />
 <path d="  M 7,8  L 7,9  L 8,9  L 8,8  Z  " style="fill:rgb(255, 253, 213); fill-opacity:1.000; stroke:none;" />
 <path d="  M 11,5  L 10,5  L 10,6  L 11,6  Z  " style="fill:rgb(255, 253, 213); fill-opacity:1.000; stroke:none;" />
 <path d="  M 11,4  L 11,5  L 12,5  L 12,4  Z  " style="fill:rgb(255, 253, 213); fill-opacity:1.000; stroke:none;" />
</svg>
